# xmcd CD database file
#
# Track frame offsets:
#	150
#	11696
#	26553
#	40035
#	45739
#	58200
#	68737
#	79875
#	90406
#	100976
#	106909
#	110518
#
# Disc length: 1614 seconds
#
# Revision: 1
# Processed by: cddbd v1.5.1PL2 Copyright (c) Steve Scherf et al.
# Submitted via: CDex 1.70beta2
#
DISCID=94064c0c
DTITLE=Loretta Lynn - Live In Concert - Coal Miner's Daughter
DYEAR=1900
DGENRE=Country
TTITLE0=Hey Loretta
TTITLE1=Coal Miner's Daughter
TTITLE2=Let Your Love Flow
TTITLE3=I Fall to Pieces
TTITLE4=Me And Bobby McGee
TTITLE5=One's on the Way
TTITLE6=Crazy
TTITLE7=Out of My Head and Back in My Bed
TTITLE8=Somebody Somewhere
TTITLE9=The Pill
TTITLE10=Walkin' After Midnight
TTITLE11=You're Looking at Country
EXTD=
EXTT0=
EXTT1=
EXTT2=
EXTT3=
EXTT4=
EXTT5=
EXTT6=
EXTT7=
EXTT8=
EXTT9=
EXTT10=
EXTT11=
PLAYORDER=
